<svg id="Group_1964" data-name="Group 1964" xmlns="http://www.w3.org/2000/svg" width="20.974" height="23.689" viewBox="0 0 20.974 23.689">
  <defs>
    <style>
      .cls-1 {
        fill: #fff;
      }
    </style>
  </defs>
  <path id="Path_1053" data-name="Path 1053" class="cls-1" d="M21.135,5.861a.536.536,0,0,0-.206-.412L12.577.6a.46.46,0,0,0-.516,0L3.606,5.448a.516.516,0,0,0,0,.825l8.352,4.846a.36.36,0,0,1,.206.1s.206,0,.206-.1l8.352-4.846c.309-.1.412-.309.412-.412Z" transform="translate(-1.75 -0.525)"/>
  <path id="Path_1054" data-name="Path 1054" class="cls-1" d="M10.874,13.348,2.522,8.5a.46.46,0,0,0-.516,0,.782.782,0,0,0-.206.412v9.692a.536.536,0,0,0,.206.412l8.352,4.846a.36.36,0,0,1,.206.1s.206,0,.206-.1a.536.536,0,0,0,.206-.412V13.761c.206-.206.1-.309-.1-.412Z" transform="translate(-1.8 -0.279)"/>
  <path id="Path_1055" data-name="Path 1055" class="cls-1" d="M22.274,8.5a.46.46,0,0,0-.516,0l-8.352,4.846a.536.536,0,0,0-.206.412v9.692a.536.536,0,0,0,.206.412.36.36,0,0,1,.206.1s.206,0,.206-.1l8.352-4.846a.536.536,0,0,0,.206-.412V8.915C22.48,8.812,22.377,8.605,22.274,8.5Z" transform="translate(-1.446 -0.279)"/>
</svg>
