<svg xmlns="http://www.w3.org/2000/svg" width="40" height="40" viewBox="0 0 40 40">
  <defs>
    <style>
      .cls-1, .cls-3 {
        fill: none;
      }

      .cls-2 {
        fill: #2150e8;
        opacity: 0;
      }

      .cls-3 {
        stroke: #fff;
        stroke-linecap: round;
      }

      .cls-4 {
        fill: #8b8b8b;
      }
    </style>
  </defs>
  <g id="Group_1982" data-name="Group 1982" transform="translate(-463 -3325)">
    <rect id="Rectangle_69" data-name="Rectangle 69" class="cls-1" width="40" height="40" transform="translate(463 3325)"/>
    <g id="Group_1981" data-name="Group 1981" transform="translate(6 6)">
      <g id="Group_1980" data-name="Group 1980" transform="translate(467 3329)">
        <g id="Layer_2" data-name="Layer 2" transform="translate(0)">
          <g id="shopping-cart" transform="translate(0 0)">
            <rect id="Rectangle_46" data-name="Rectangle 46" class="cls-2" width="20" height="20"/>
          </g>
        </g>
        <g id="Group_1978" data-name="Group 1978" transform="translate(9.091 7.273)">
          <line id="Line_13" data-name="Line 13" class="cls-3" y2="3.636" transform="translate(1.818 0)"/>
          <line id="Line_14" data-name="Line 14" class="cls-3" y2="3.636" transform="translate(3.636 1.818) rotate(90)"/>
        </g>
      </g>
      <path id="Path_1058" data-name="Path 1058" class="cls-4" d="M10.709,1A4.049,4.049,0,0,0,7.327,3,4.049,4.049,0,0,0,3.946,1,3.915,3.915,0,0,0,0,4.885,3.976,3.976,0,0,0,1.127,7.661c1.586,1.631,6.2,6.161,6.2,6.161s4.613-4.53,6.2-6.161a3.976,3.976,0,0,0,1.127-2.776A3.915,3.915,0,0,0,10.709,1Z" transform="translate(469.424 3331.636)"/>
    </g>
  </g>
</svg>
