<svg id="Group_1963" data-name="Group 1963" xmlns="http://www.w3.org/2000/svg" width="29.937" height="22.187" viewBox="0 0 29.937 22.187">
  <defs>
    <style>
      .cls-1 {
        fill: #fff;
      }
    </style>
  </defs>
  <path id="Path_1051" data-name="Path 1051" class="cls-1" d="M43.019,34.4H22.262A2.073,2.073,0,0,0,20.2,36.462v2.262a.369.369,0,0,0,.366.366h24.15a.369.369,0,0,0,.366-.366V36.462A2.051,2.051,0,0,0,43.019,34.4Zm1.7,6.753H20.566a.369.369,0,0,0-.366.366V48.6a2.073,2.073,0,0,0,2.062,2.062H43.019A2.073,2.073,0,0,0,45.081,48.6V41.518A.369.369,0,0,0,44.715,41.153ZM26.953,47.007a.215.215,0,0,1-.2.2H23.626a.215.215,0,0,1-.2-.2V43.88a.215.215,0,0,1,.2-.2h3.127a.215.215,0,0,1,.2.2Z" transform="translate(-15.144 -28.479)"/>
  <path id="Path_1052" data-name="Path 1052" class="cls-1" d="M7.062,32.533H8.293a.227.227,0,0,0,.233-.233V23.985a3.052,3.052,0,0,1,3.06-3.06H29.648a.227.227,0,0,0,.233-.233V18.662A2.073,2.073,0,0,0,27.819,16.6H8.06A3.052,3.052,0,0,0,5,19.66V30.438A2.08,2.08,0,0,0,7.062,32.533Z" transform="translate(-5 -16.6)"/>
</svg>
