<svg id="Group_1965" data-name="Group 1965" xmlns="http://www.w3.org/2000/svg" width="35.107" height="35.107" viewBox="0 0 35.107 35.107">
  <defs>
    <style>
      .cls-1 {
        fill: none;
      }

      .cls-2 {
        fill: #fff;
      }
    </style>
  </defs>
  <path id="Path_1056" data-name="Path 1056" class="cls-1" d="M0,0H35.107V35.107H0Z"/>
  <path id="Path_1057" data-name="Path 1057" class="cls-2" d="M29.011,26.085H4.144a1.463,1.463,0,1,0,0,2.926H29.011a1.463,1.463,0,1,0,0-2.926Zm2.3-13.692a2.207,2.207,0,0,0-2.692-1.551L20.849,12.92,11.4,4.114a1.551,1.551,0,0,0-1.492-.366A1.585,1.585,0,0,0,8.956,6.06l5.032,8.718-7.27,1.946-2.3-1.814a1.5,1.5,0,0,0-1.287-.263l-.483.132a.719.719,0,0,0-.439,1.068L4.963,20.6a1.484,1.484,0,0,0,1.638.688l23.141-6.2a2.216,2.216,0,0,0,1.565-2.692Z" transform="translate(0.976 1.708)"/>
</svg>
