<svg xmlns="http://www.w3.org/2000/svg" width="24" height="24" viewBox="0 0 24 24">
  <defs>
    <style>
      .cls-1 {
        fill: #fcfeff;
        opacity: 0;
      }

      .cls-2 {
        fill: #d10024;
      }
    </style>
  </defs>
  <g id="Group_1926" data-name="Group 1926" transform="translate(-1476 -33)">
    <rect id="Rectangle_8" data-name="Rectangle 8" class="cls-1" width="24" height="24" transform="translate(1476 33)"/>
    <g id="layer1" transform="translate(1480.818 -998.544)">
      <path id="path4952" class="cls-2" d="M6,0a6,6,0,1,0,6,6A6.006,6.006,0,0,0,6,0ZM6,.75a.81.81,0,0,1,.58.322A3.535,3.535,0,0,1,7.2,2.159,8.54,8.54,0,0,1,7.627,3.75H4.373A8.541,8.541,0,0,1,4.8,2.159,3.535,3.535,0,0,1,5.42,1.072.81.81,0,0,1,6,.75Zm-1.425.2a4.933,4.933,0,0,0-.478.938A9.338,9.338,0,0,0,3.6,3.75H1.26A5.245,5.245,0,0,1,4.575.949Zm2.851,0a5.245,5.245,0,0,1,3.315,2.8H8.4A9.336,9.336,0,0,0,7.9,1.887,4.936,4.936,0,0,0,7.425.949ZM.97,4.5H3.516A14.3,14.3,0,0,0,3.429,6a14.306,14.306,0,0,0,.086,1.5H.97a5.23,5.23,0,0,1,0-3Zm3.3,0H7.729A13.369,13.369,0,0,1,7.821,6a13.353,13.353,0,0,1-.092,1.5H4.271A13.346,13.346,0,0,1,4.179,6,13.368,13.368,0,0,1,4.271,4.5Zm4.213,0H11.03a5.229,5.229,0,0,1,0,3H8.484A14.313,14.313,0,0,0,8.571,6,14.309,14.309,0,0,0,8.484,4.5ZM1.261,8.25H3.6A9.346,9.346,0,0,0,4.1,10.115a4.924,4.924,0,0,0,.476.935A5.244,5.244,0,0,1,1.261,8.25Zm3.113,0H7.626A8.57,8.57,0,0,1,7.2,9.842a3.534,3.534,0,0,1-.624,1.087A.807.807,0,0,1,6,11.25a.807.807,0,0,1-.58-.321A3.534,3.534,0,0,1,4.8,9.842,8.57,8.57,0,0,1,4.374,8.25Zm4.021,0h2.344a5.244,5.244,0,0,1-3.312,2.8,4.924,4.924,0,0,0,.476-.935A9.344,9.344,0,0,0,8.4,8.25Z" transform="translate(1.323 1037.686)"/>
    </g>
  </g>
</svg>
