<svg xmlns="http://www.w3.org/2000/svg" width="24" height="24" viewBox="0 0 24 24">
  <defs>
    <style>
      .cls-1 {
        fill: #fff;
      }

      .cls-2 {
        fill: none;
      }
    </style>
  </defs>
  <g id="Group_2372" data-name="Group 2372" transform="translate(-1395 -60)">
    <path id="Path_1049" data-name="Path 1049" class="cls-1" d="M11.6,20.615a.765.765,0,0,1-.542-.225L3.736,13.069A5.752,5.752,0,0,1,11.6,4.681a5.752,5.752,0,0,1,7.863,8.389L12.141,20.39a.765.765,0,0,1-.542.225ZM7.8,4.786a4.216,4.216,0,0,0-2.983,7.2L11.6,18.763l6.779-6.779a4.218,4.218,0,0,0-5.965-5.965l-.271.271a.766.766,0,0,1-1.084,0l-.271-.271A4.2,4.2,0,0,0,7.8,4.786Z" transform="translate(1394.946 59.748)"/>
    <rect id="Rectangle_1541" data-name="Rectangle 1541" class="cls-2" width="24" height="24" transform="translate(1395 60)"/>
  </g>
</svg>
