<svg id="Group_11" data-name="Group 11" xmlns="http://www.w3.org/2000/svg" xmlns:xlink="http://www.w3.org/1999/xlink" width="24" height="24" viewBox="0 0 24 24">
  <defs>
    <style>
      .cls-1 {
        fill: #fff;
      }

      .cls-2 {
        clip-path: url(#clip-path);
      }

      .cls-3 {
        fill: none;
      }
    </style>
    <clipPath id="clip-path">
      <path id="Icon" class="cls-1" d="M14.949,16.463a.848.848,0,0,1-.6-.25L10.41,12.278A6.585,6.585,0,0,1,6.66,13.443,6.722,6.722,0,0,1,6.66,0a6.734,6.734,0,0,1,5.023,11.136l3.869,3.869a.854.854,0,0,1-.6,1.458ZM6.66,1.723a5,5,0,1,0,4.953,5A4.981,4.981,0,0,0,6.66,1.723Z"/>
    </clipPath>
  </defs>
  <g id="_Glyphs_Tab_Bar_Search" data-name="_Glyphs / Tab Bar / Search" transform="translate(4 4)">
    <path id="Icon-2" data-name="Icon" class="cls-1" d="M14.949,16.463a.848.848,0,0,1-.6-.25L10.41,12.278A6.585,6.585,0,0,1,6.66,13.443,6.722,6.722,0,0,1,6.66,0a6.734,6.734,0,0,1,5.023,11.136l3.869,3.869a.854.854,0,0,1-.6,1.458ZM6.66,1.723a5,5,0,1,0,4.953,5A4.981,4.981,0,0,0,6.66,1.723Z" transform="translate(0)"/>
  </g>
  <rect id="Rectangle_10" data-name="Rectangle 10" class="cls-3" width="24" height="24"/>
</svg>
