<svg id="Layer_2" data-name="Layer 2" xmlns="http://www.w3.org/2000/svg" width="24" height="24" viewBox="0 0 24 24">
  <g id="shopping-cart">
    <rect id="Rectangle_46" data-name="Rectangle 46" width="24" height="24" fill="#d10024" opacity="0"/>
    <path id="Path_1045" data-name="Path 1045" d="M21.08,7a2,2,0,0,0-1.7-1H6.58L6,3.74A1,1,0,0,0,5,3H3A1,1,0,0,0,3,5H4.24L7,15.26A1,1,0,0,0,8,16h9a1,1,0,0,0,.89-.55l3.28-6.56A2,2,0,0,0,21.08,7Z" fill="#d10024"/>
    <circle id="Ellipse_5" data-name="Ellipse 5" cx="1.5" cy="1.5" r="1.5" transform="translate(6 18)" fill="#d10024"/>
    <circle id="Ellipse_6" data-name="Ellipse 6" cx="1.5" cy="1.5" r="1.5" transform="translate(16 18)" fill="#d10024"/>
  </g>
</svg>
