<svg xmlns="http://www.w3.org/2000/svg" width="30" height="30" viewBox="0 0 30 30">
  <defs>
    <style>
      .cls-1 {
        fill: #8b8b8b;
      }

      .cls-2 {
        fill: none;
      }
    </style>
  </defs>
  <g id="Group_2276" data-name="Group 2276" transform="translate(-1170 -3100)">
    <path id="Path_2124" data-name="Path 2124" class="cls-1" d="M16.166,49.549a6.91,6.91,0,0,1-1.91.523,3.3,3.3,0,0,0,1.458-1.832,6.623,6.623,0,0,1-2.1.8A3.314,3.314,0,0,0,7.88,51.31a3.413,3.413,0,0,0,.077.755A9.381,9.381,0,0,1,1.126,48.6a3.316,3.316,0,0,0,1.018,4.43,3.273,3.273,0,0,1-1.5-.408v.036A3.329,3.329,0,0,0,3.3,55.913a3.308,3.308,0,0,1-.869.109,2.93,2.93,0,0,1-.627-.057,3.346,3.346,0,0,0,3.1,2.309A6.659,6.659,0,0,1,.793,59.687,6.208,6.208,0,0,1,0,59.642a9.33,9.33,0,0,0,5.084,1.487A9.368,9.368,0,0,0,14.517,51.7c0-.147-.005-.288-.012-.428A6.612,6.612,0,0,0,16.166,49.549Z" transform="translate(1177 3060.007)"/>
    <rect id="Rectangle_1227" data-name="Rectangle 1227" class="cls-2" width="30" height="30" transform="translate(1170 3100)"/>
  </g>
</svg>
