<svg xmlns="http://www.w3.org/2000/svg" width="24" height="24" viewBox="0 0 24 24">
  <defs>
    <style>
      .cls-1 {
        fill: #fcfeff;
        opacity: 0;
      }

      .cls-2 {
        fill: #d10024;
      }
    </style>
  </defs>
  <g id="Group_2374" data-name="Group 2374" transform="translate(-1462 -65)">
    <g id="Group_1926" data-name="Group 1926" transform="translate(-14 32)">
      <rect id="Rectangle_8" data-name="Rectangle 8" class="cls-1" width="24" height="24" transform="translate(1476 33)"/>
    </g>
    <path id="Union_1" data-name="Union 1" class="cls-2" d="M1.161,12a1.2,1.2,0,0,1-.615-.17,1.2,1.2,0,0,1-.482-.588,1.63,1.63,0,0,1-.063-.6A8,8,0,0,1,.058,9.332,3.369,3.369,0,0,1,.947,7.6a3.59,3.59,0,0,1,1.708-1,4.638,4.638,0,0,1,1.163-.116H6.158a4.86,4.86,0,0,1,1.135.1,3.6,3.6,0,0,1,1.73.978,3.381,3.381,0,0,1,.911,1.721A7.361,7.361,0,0,1,10,10.609a1.929,1.929,0,0,1-.046.584A1.175,1.175,0,0,1,8.9,12a.5.5,0,0,1-.06,0H1.161ZM4.687,6.041a3.668,3.668,0,0,1-.527-.092,3.664,3.664,0,0,1-.505-.184A3.082,3.082,0,0,1,2.306,4.591a2.924,2.924,0,0,1-.234-2.658A3.084,3.084,0,0,1,2.3,1.481a3.35,3.35,0,0,1,.306-.41,3.226,3.226,0,0,1,3.435-.9,3.144,3.144,0,0,1,.823.422,3.332,3.332,0,0,1,.389.323,3.512,3.512,0,0,1,.326.383,2.925,2.925,0,0,1,.565,1.728.486.486,0,0,1,0,.059,3.487,3.487,0,0,1-.048.466A3.082,3.082,0,0,1,5.664,5.99,3.507,3.507,0,0,1,5,6.058,2.742,2.742,0,0,1,4.687,6.041Z" transform="translate(1469 71)"/>
  </g>
</svg>
